<svg width="103" height="32" viewBox="0 0 104 33" fill="#9CC588" xmlns="http://www.w3.org/2000/svg">
<g clip-path="url(#clip0_60_545)">
<path d="M36.3277 24.1787C34.6982 24.1787 33.2685 23.8272 32.0384 23.1243C30.8242 22.4214 29.8897 21.415 29.2347 20.105C28.5797 18.795 28.2522 17.2614 28.2522 15.5041C28.2522 13.7468 28.5797 12.2211 29.2347 10.9271C29.8897 9.61716 30.8242 8.61071 32.0384 7.9078C33.2685 7.20488 34.6982 6.85342 36.3277 6.85342C37.3821 6.85342 38.3726 7.01318 39.2991 7.33268C40.2257 7.63622 41.0485 8.08353 41.7673 8.67461C41.975 8.83437 42.1188 9.00211 42.1987 9.17784C42.2786 9.35357 42.3185 9.56923 42.3185 9.82484C42.3185 10.1763 42.2226 10.4718 42.0309 10.7115C41.8392 10.9511 41.6076 11.0709 41.336 11.0709C41.0165 11.0709 40.689 10.9591 40.3535 10.7354C39.6666 10.2242 39.0276 9.87276 38.4365 9.68106C37.8454 9.47338 37.1904 9.36954 36.4715 9.36954C34.8101 9.36954 33.548 9.88874 32.6854 10.9271C31.8387 11.9655 31.4153 13.4912 31.4153 15.5041C31.4153 17.5329 31.8387 19.0666 32.6854 20.105C33.548 21.1434 34.8101 21.6626 36.4715 21.6626C37.1585 21.6626 37.7895 21.5587 38.3646 21.3511C38.9557 21.1434 39.6187 20.7919 40.3535 20.2967C40.5133 20.2008 40.673 20.1209 40.8328 20.057C40.9925 19.9931 41.1603 19.9612 41.336 19.9612C41.6076 19.9612 41.8392 20.081 42.0309 20.3206C42.2226 20.5603 42.3185 20.8558 42.3185 21.2073C42.3185 21.4469 42.2786 21.6626 42.1987 21.8543C42.1188 22.03 41.975 22.1977 41.7673 22.3575C41.0485 22.9486 40.2257 23.4039 39.2991 23.7234C38.3726 24.0269 37.3821 24.1787 36.3277 24.1787ZM49.8661 24.1547C48.668 24.1547 47.6136 23.9071 46.703 23.4119C45.8084 22.9166 45.1135 22.2057 44.6182 21.2792C44.123 20.3526 43.8754 19.2743 43.8754 18.0442C43.8754 16.8141 44.123 15.7437 44.6182 14.8331C45.1135 13.9065 45.8084 13.1956 46.703 12.7004C47.6136 12.2052 48.668 11.9575 49.8661 11.9575C51.0643 11.9575 52.1107 12.2052 53.0053 12.7004C53.9159 13.1956 54.6108 13.9065 55.0901 14.8331C55.5853 15.7437 55.8329 16.8141 55.8329 18.0442C55.8329 19.2743 55.5853 20.3526 55.0901 21.2792C54.6108 22.2057 53.9159 22.9166 53.0053 23.4119C52.1107 23.9071 51.0643 24.1547 49.8661 24.1547ZM49.8422 21.8303C50.8167 21.8303 51.5595 21.5108 52.0707 20.8718C52.5819 20.2328 52.8376 19.2902 52.8376 18.0442C52.8376 16.8141 52.5819 15.8795 52.0707 15.2405C51.5595 14.5855 50.8247 14.258 49.8661 14.258C48.9076 14.258 48.1648 14.5855 47.6376 15.2405C47.1264 15.8795 46.8708 16.8141 46.8708 18.0442C46.8708 19.2902 47.1264 20.2328 47.6376 20.8718C48.1488 21.5108 48.8837 21.8303 49.8422 21.8303ZM67.5554 12.0055C68.0187 12.0055 68.3862 12.1333 68.6577 12.3889C68.9293 12.6445 69.0651 12.988 69.0651 13.4193V22.7169C69.0651 23.1323 68.9213 23.4678 68.6338 23.7234C68.3622 23.979 68.0028 24.1068 67.5554 24.1068C67.1241 24.1068 66.7806 23.987 66.525 23.7474C66.2694 23.5077 66.1416 23.1802 66.1416 22.7649V22.1658C65.7742 22.8048 65.279 23.3 64.6559 23.6515C64.0329 23.987 63.33 24.1547 62.5472 24.1547C59.6716 24.1547 58.2338 22.5412 58.2338 19.3142V13.4193C58.2338 12.988 58.3696 12.6445 58.6412 12.3889C58.9128 12.1333 59.2722 12.0055 59.7195 12.0055C60.1828 12.0055 60.5503 12.1333 60.8218 12.3889C61.0934 12.6445 61.2292 12.988 61.2292 13.4193V19.3382C61.2292 20.1689 61.3969 20.7839 61.7324 21.1833C62.0679 21.5827 62.5951 21.7824 63.314 21.7824C64.1447 21.7824 64.8077 21.5108 65.3029 20.9676C65.8141 20.4085 66.0697 19.6736 66.0697 18.763V13.4193C66.0697 12.988 66.2055 12.6445 66.4771 12.3889C66.7487 12.1333 67.1081 12.0055 67.5554 12.0055ZM78.9164 11.9575C79.9229 11.9575 80.8175 12.2132 81.6003 12.7244C82.399 13.2356 83.0141 13.9625 83.4454 14.905C83.8927 15.8316 84.1164 16.9019 84.1164 18.116C84.1164 19.3302 83.8927 20.3925 83.4454 21.3031C83.0141 22.2137 82.407 22.9166 81.6242 23.4119C80.8414 23.9071 79.9388 24.1547 78.9164 24.1547C78.0857 24.1547 77.3428 23.979 76.6878 23.6275C76.0329 23.2761 75.5296 22.7888 75.1782 22.1658V27.0543C75.1782 27.4696 75.0424 27.7971 74.7708 28.0367C74.4992 28.2764 74.1398 28.3962 73.6925 28.3962C73.2452 28.3962 72.8777 28.2684 72.5902 28.0128C72.3186 27.7572 72.1828 27.4217 72.1828 27.0063V13.4193C72.1828 12.988 72.3106 12.6445 72.5662 12.3889C72.8378 12.1333 73.1972 12.0055 73.6445 12.0055C74.0919 12.0055 74.4513 12.1333 74.7229 12.3889C74.9945 12.6445 75.1303 12.988 75.1303 13.4193V14.0184C75.4817 13.3634 75.9849 12.8602 76.6399 12.5087C77.3109 12.1413 78.0697 11.9575 78.9164 11.9575ZM78.1256 21.8303C79.0682 21.8303 79.803 21.5108 80.3302 20.8718C80.8574 20.2168 81.121 19.2982 81.121 18.116C81.121 16.9019 80.8574 15.9594 80.3302 15.2884C79.803 14.6174 79.0682 14.282 78.1256 14.282C77.1671 14.282 76.4243 14.6095 75.8971 15.2644C75.3859 15.9194 75.1303 16.854 75.1303 18.0681C75.1303 19.2663 75.3859 20.1928 75.8971 20.8478C76.4243 21.5028 77.1671 21.8303 78.1256 21.8303ZM88.0603 24.1068C87.629 24.1068 87.2695 23.987 86.982 23.7474C86.7104 23.4917 86.5746 23.1323 86.5746 22.669V8.36309C86.5746 7.89981 86.7104 7.54835 86.982 7.30872C87.2695 7.06909 87.629 6.94928 88.0603 6.94928C88.4916 6.94928 88.8511 7.06909 89.1386 7.30872C89.4262 7.54835 89.57 7.89981 89.57 8.36309V22.669C89.57 23.1323 89.4262 23.4917 89.1386 23.7474C88.8511 23.987 88.4916 24.1068 88.0603 24.1068ZM100.83 12.8681C100.958 12.5806 101.126 12.3729 101.333 12.2451C101.557 12.1013 101.797 12.0294 102.052 12.0294C102.42 12.0294 102.747 12.1572 103.035 12.4128C103.338 12.6525 103.49 12.956 103.49 13.3234C103.49 13.4992 103.442 13.6829 103.346 13.8746L96.8046 27.5814C96.533 28.1246 96.1097 28.3962 95.5346 28.3962C95.1671 28.3962 94.8396 28.2764 94.5521 28.0367C94.2805 27.8131 94.1447 27.5255 94.1447 27.1741C94.1447 26.9983 94.1926 26.7986 94.2885 26.575L95.918 23.1483L91.4609 13.8746C91.381 13.7148 91.341 13.5311 91.341 13.3234C91.341 12.956 91.4928 12.6445 91.7963 12.3889C92.1158 12.1333 92.4753 12.0055 92.8747 12.0055C93.1463 12.0055 93.3939 12.0774 93.6175 12.2211C93.8412 12.3489 94.0169 12.5566 94.1447 12.8442L97.4995 20.2488L100.83 12.8681Z" fill="#9CC588"/>
<mask id="mask0_60_545" style="mask-type:luminance" maskUnits="userSpaceOnUse" x="0" y="5" width="21" height="22">
<path d="M20.9676 5.99075H0V26.9584H20.9676V5.99075Z" fill="white"/>
</mask>
<g mask="url(#mask0_60_545)">
<path d="M11.1739 24.3374L2.62085 15.7843V17.5316C2.62085 17.9947 2.80432 18.4402 3.1363 18.7635L9.94205 25.5692C10.6235 26.2507 11.7331 26.2507 12.4145 25.5692L17.8399 20.1439C18.5213 19.4625 18.5213 18.3529 17.8399 17.6714L11.1739 24.3374Z" fill="#9CC588"/>
<path d="M9.94205 21.201C10.6235 21.8824 11.7331 21.8824 12.4145 21.201L17.8399 15.7757C18.5213 15.0942 18.5213 13.9847 17.8399 13.3033L11.0342 6.49747C10.7023 6.17361 10.2573 5.99184 9.79353 5.99075H4.36815C3.40714 5.99075 2.62085 6.77704 2.62085 7.73806V13.1635C2.62085 13.6265 2.80432 14.0721 3.1363 14.3953L9.94205 21.201ZM6.33387 8.61171C6.6235 8.61171 6.90127 8.72676 7.10608 8.93156C7.31088 9.13637 7.42593 9.41414 7.42593 9.70377C7.42593 9.99338 7.31088 10.2711 7.10608 10.4759C6.90127 10.6808 6.6235 10.7958 6.33387 10.7958C6.04424 10.7958 5.76647 10.6808 5.56166 10.4759C5.35686 10.2711 5.2418 9.99338 5.2418 9.70377C5.2418 9.41414 5.35686 9.13637 5.56166 8.93156C5.76647 8.72676 6.04424 8.61171 6.33387 8.61171Z" fill="#9CC588"/>
</g>
</g>
<defs>
<clipPath id="clip0_60_545">
<rect width="103.84" height="32.9492" fill="white"/>
</clipPath>
</defs>
</svg>
