      <svg
        width="146"
        height="87"
        viewBox="0 0 146 87"
        fill="none"
        xmlns="http://www.w3.org/2000/svg"
      >
        <mask
          id="path-1-outside-1_1_9"
          maskUnits="userSpaceOnUse"
          x="6.10352e-05"
          y="19.3408"
          width="138"
          height="49"
          fill="black"
        >
          <rect
            fill="white"
            x="6.10352e-05"
            y="19.3408"
            width="138"
            height="49"
          />
          <path d="M1.17199 34.5521C1.17199 30.2062 2.44159 26.7148 4.98078 24.0779C7.51997 21.4411 10.9869 20.1227 15.3817 20.1227C19.8253 20.1227 24.3665 20.5621 29.0054 21.4411L27.5405 33.1604C22.7063 32.0373 19.3858 31.4758 17.5791 31.4758C15.284 31.4758 14.1365 32.4035 14.1365 34.2591C14.1365 34.9916 14.6736 35.6996 15.7479 36.3832C16.871 37.0669 18.2139 37.7993 19.7764 38.5806C21.339 39.3131 22.9016 40.2164 24.4642 41.2907C26.0268 42.3162 27.3452 43.8055 28.4195 45.7587C29.5426 47.7119 30.1041 49.9581 30.1041 52.4973C30.1041 57.1362 28.8589 60.7253 26.3686 63.2645C23.8782 65.8037 20.338 67.0733 15.7479 67.0733C11.2067 67.0733 6.7631 66.3652 2.41717 64.9491L3.22288 54.0355C8.44775 55.5492 12.0856 56.3061 14.1365 56.3061C16.1874 56.3061 17.2128 55.4027 17.2128 53.596C17.2128 52.6682 16.6513 51.8137 15.5282 51.0324C14.4539 50.2511 13.1355 49.4698 11.5729 48.6885C10.0103 47.9073 8.42334 47.0039 6.81193 45.9784C5.24935 44.953 3.90651 43.4637 2.7834 41.5104C1.70913 39.5572 1.17199 37.2378 1.17199 34.5521ZM57.6268 66.3408H34.4811V20.8551H47.0062V56.1596H58.3593L57.6268 66.3408ZM74.2027 66.3408H61.7509V20.8551H74.2027V66.3408ZM92.6841 44.0741C92.6841 48.3711 93.0992 51.4475 93.9293 53.303C94.8082 55.1098 96.2243 56.0131 98.1776 56.0131C100.131 56.0131 102.89 55.5492 106.454 54.6215L108.359 64.9491C104.501 66.3652 100.619 67.0733 96.7126 67.0733C90.853 67.0733 86.5803 65.1444 83.8946 61.2868C81.2578 57.3804 79.9393 51.594 79.9393 43.9276C79.9393 36.2123 81.331 30.3282 84.1144 26.2753C86.8977 22.1735 91.4389 20.1227 97.7381 20.1227C101.449 20.1227 104.989 20.9039 108.359 22.4665L106.381 33.8196C102.572 32.55 99.911 31.9152 98.3973 31.9152C96.2488 31.9152 94.7594 32.8674 93.9293 34.7718C93.0992 36.6274 92.6841 39.7281 92.6841 44.0741ZM136.057 66.3408H111.447V20.8551H136.79L136.057 32.0617H123.972V38.8736L134.446 38.8736V48.5421L123.972 48.5421V56.0864L136.79 56.0864L136.057 66.3408Z" />
        </mask>
        <path
          d="M1.17199 34.5521C1.17199 30.2062 2.44159 26.7148 4.98078 24.0779C7.51997 21.4411 10.9869 20.1227 15.3817 20.1227C19.8253 20.1227 24.3665 20.5621 29.0054 21.4411L27.5405 33.1604C22.7063 32.0373 19.3858 31.4758 17.5791 31.4758C15.284 31.4758 14.1365 32.4035 14.1365 34.2591C14.1365 34.9916 14.6736 35.6996 15.7479 36.3832C16.871 37.0669 18.2139 37.7993 19.7764 38.5806C21.339 39.3131 22.9016 40.2164 24.4642 41.2907C26.0268 42.3162 27.3452 43.8055 28.4195 45.7587C29.5426 47.7119 30.1041 49.9581 30.1041 52.4973C30.1041 57.1362 28.8589 60.7253 26.3686 63.2645C23.8782 65.8037 20.338 67.0733 15.7479 67.0733C11.2067 67.0733 6.7631 66.3652 2.41717 64.9491L3.22288 54.0355C8.44775 55.5492 12.0856 56.3061 14.1365 56.3061C16.1874 56.3061 17.2128 55.4027 17.2128 53.596C17.2128 52.6682 16.6513 51.8137 15.5282 51.0324C14.4539 50.2511 13.1355 49.4698 11.5729 48.6885C10.0103 47.9073 8.42334 47.0039 6.81193 45.9784C5.24935 44.953 3.90651 43.4637 2.7834 41.5104C1.70913 39.5572 1.17199 37.2378 1.17199 34.5521ZM57.6268 66.3408H34.4811V20.8551H47.0062V56.1596H58.3593L57.6268 66.3408ZM74.2027 66.3408H61.7509V20.8551H74.2027V66.3408ZM92.6841 44.0741C92.6841 48.3711 93.0992 51.4475 93.9293 53.303C94.8082 55.1098 96.2243 56.0131 98.1776 56.0131C100.131 56.0131 102.89 55.5492 106.454 54.6215L108.359 64.9491C104.501 66.3652 100.619 67.0733 96.7126 67.0733C90.853 67.0733 86.5803 65.1444 83.8946 61.2868C81.2578 57.3804 79.9393 51.594 79.9393 43.9276C79.9393 36.2123 81.331 30.3282 84.1144 26.2753C86.8977 22.1735 91.4389 20.1227 97.7381 20.1227C101.449 20.1227 104.989 20.9039 108.359 22.4665L106.381 33.8196C102.572 32.55 99.911 31.9152 98.3973 31.9152C96.2488 31.9152 94.7594 32.8674 93.9293 34.7718C93.0992 36.6274 92.6841 39.7281 92.6841 44.0741ZM136.057 66.3408H111.447V20.8551H136.79L136.057 32.0617H123.972V38.8736L134.446 38.8736V48.5421L123.972 48.5421V56.0864L136.79 56.0864L136.057 66.3408Z"
          fill="#13AB93"
        />
        <path
          d="M4.98078 24.0779L5.53037 24.6072L4.98078 24.0779ZM29.0054 21.4411L29.7625 21.5357L29.8514 20.8248L29.1475 20.6914L29.0054 21.4411ZM27.5405 33.1604L27.3678 33.9036L28.1926 34.0952L28.2976 33.2551L27.5405 33.1604ZM15.7479 36.3832L15.3383 37.0269L15.3447 37.031L15.3512 37.035L15.7479 36.3832ZM19.7764 38.5806L19.4352 39.263L19.4439 39.2674L19.4526 39.2715L19.7764 38.5806ZM24.4642 41.2907L24.0319 41.9194L24.0387 41.9241L24.0456 41.9286L24.4642 41.2907ZM28.4195 45.7587L27.7509 46.1264L27.7544 46.1327L27.758 46.139L28.4195 45.7587ZM26.3686 63.2645L25.8239 62.7302L26.3686 63.2645ZM2.41717 64.9491L1.65627 64.893L1.61224 65.4893L2.1808 65.6746L2.41717 64.9491ZM3.22288 54.0355L3.4352 53.3026L2.53126 53.0408L2.46197 53.9793L3.22288 54.0355ZM15.5282 51.0324L15.0794 51.6495L15.0859 51.6542L15.0925 51.6587L15.5282 51.0324ZM11.5729 48.6885L11.9141 48.0061L11.5729 48.6885ZM6.81193 45.9784L6.39327 46.6164L6.4023 46.6221L6.81193 45.9784ZM2.7834 41.5104L2.11487 41.8781L2.11836 41.8845L2.12197 41.8908L2.7834 41.5104ZM1.93497 34.5521C1.93497 30.3641 3.1532 27.0758 5.53037 24.6072L4.43119 23.5487C1.72998 26.3538 0.409017 30.0482 0.409017 34.5521H1.93497ZM5.53037 24.6072C7.89739 22.1491 11.1495 20.8856 15.3817 20.8856V19.3597C10.8244 19.3597 7.14255 20.7331 4.43119 23.5487L5.53037 24.6072ZM15.3817 20.8856C19.7748 20.8856 24.2684 21.3201 28.8634 22.1907L29.1475 20.6914C24.4646 19.8042 19.8758 19.3597 15.3817 19.3597V20.8856ZM28.2483 21.3464L26.7834 33.0658L28.2976 33.2551L29.7625 21.5357L28.2483 21.3464ZM27.7132 32.4172C22.888 31.2962 19.4858 30.7128 17.5791 30.7128V32.2387C19.2858 32.2387 22.5246 32.7784 27.3678 33.9036L27.7132 32.4172ZM17.5791 30.7128C16.3486 30.7128 15.2843 30.9583 14.5175 31.5783C13.7196 32.2234 13.3735 33.1657 13.3735 34.2591H14.8995C14.8995 33.4969 15.1272 33.0476 15.4769 32.7649C15.8575 32.4571 16.5145 32.2387 17.5791 32.2387V30.7128ZM13.3735 34.2591C13.3735 35.3996 14.2065 36.3067 15.3383 37.0269L16.1575 35.7395C15.1408 35.0925 14.8995 34.5836 14.8995 34.2591H13.3735ZM15.3512 37.035C16.4971 37.7325 17.8595 38.4752 19.4352 39.263L20.1177 37.8982C18.5683 37.1235 17.2449 36.4012 16.1446 35.7315L15.3512 37.035ZM19.4526 39.2715C20.9739 39.9846 22.5004 40.8665 24.0319 41.9194L24.8964 40.662C23.3028 39.5664 21.7041 38.6416 20.1003 37.8898L19.4526 39.2715ZM24.0456 41.9286C25.4857 42.8737 26.7251 44.2613 27.7509 46.1264L29.088 45.391C27.9652 43.3496 26.5678 41.7586 24.8828 40.6528L24.0456 41.9286ZM27.758 46.139C28.8065 47.9624 29.3411 50.0743 29.3411 52.4973H30.8671C30.8671 49.8419 30.2786 47.4614 29.0809 45.3784L27.758 46.139ZM29.3411 52.4973C29.3411 56.9996 28.1356 60.3732 25.8239 62.7302L26.9133 63.7987C29.5823 61.0774 30.8671 57.2729 30.8671 52.4973H29.3411ZM25.8239 62.7302C23.5155 65.0839 20.1955 66.3103 15.7479 66.3103V67.8362C20.4805 67.8362 24.241 66.5235 26.9133 63.7987L25.8239 62.7302ZM15.7479 66.3103C11.2875 66.3103 6.92365 65.6151 2.65355 64.2237L2.1808 65.6746C6.60254 67.1154 11.1259 67.8362 15.7479 67.8362V66.3103ZM3.17808 65.0053L3.98379 54.0917L2.46197 53.9793L1.65627 64.893L3.17808 65.0053ZM3.01056 54.7683C8.2269 56.2796 11.9628 57.0691 14.1365 57.0691V55.5431C12.2084 55.5431 8.66861 54.8189 3.4352 53.3026L3.01056 54.7683ZM14.1365 57.0691C15.2575 57.0691 16.2407 56.8243 16.9481 56.2011C17.674 55.5616 17.9758 54.6439 17.9758 53.596H16.4499C16.4499 54.3549 16.239 54.7922 15.9394 55.0561C15.6214 55.3362 15.0665 55.5431 14.1365 55.5431V57.0691ZM17.9758 53.596C17.9758 52.315 17.1891 51.2584 15.9639 50.4061L15.0925 51.6587C16.1135 52.369 16.4499 53.0215 16.4499 53.596H17.9758ZM15.9769 50.4154C14.86 49.6031 13.5033 48.8007 11.9141 48.0061L11.2317 49.371C12.7677 50.139 14.0478 50.8992 15.0794 51.6495L15.9769 50.4154ZM11.9141 48.0061C10.377 47.2376 8.81286 46.3474 7.22155 45.3347L6.4023 46.6221C8.03381 47.6604 9.64361 48.5769 11.2317 49.371L11.9141 48.0061ZM7.23054 45.3406C5.78649 44.3929 4.52043 43.0007 3.44483 41.1301L2.12197 41.8908C3.29259 43.9266 4.71221 45.5131 6.39331 46.6163L7.23054 45.3406ZM3.45194 41.1428C2.45113 39.3231 1.93497 37.1354 1.93497 34.5521H0.409017C0.409017 37.3401 0.967128 39.7913 2.11487 41.8781L3.45194 41.1428ZM57.6268 66.3408V67.1038H58.3369L58.3878 66.3955L57.6268 66.3408ZM34.4811 66.3408H33.7181V67.1038H34.4811V66.3408ZM34.4811 20.8551V20.0921H33.7181V20.8551H34.4811ZM47.0062 20.8551H47.7691V20.0921H47.0062V20.8551ZM47.0062 56.1596H46.2432V56.9226H47.0062V56.1596ZM58.3593 56.1596L59.1203 56.2144L59.1791 55.3966H58.3593V56.1596ZM57.6268 65.5778H34.4811V67.1038H57.6268V65.5778ZM35.2441 66.3408V20.8551H33.7181V66.3408H35.2441ZM34.4811 21.6181H47.0062V20.0921H34.4811V21.6181ZM46.2432 20.8551V56.1596H47.7691V20.8551H46.2432ZM47.0062 56.9226H58.3593V55.3966H47.0062V56.9226ZM57.5983 56.1049L56.8658 66.286L58.3878 66.3955L59.1203 56.2144L57.5983 56.1049ZM74.2027 66.3408V67.1038H74.9657V66.3408H74.2027ZM61.7509 66.3408H60.9879V67.1038H61.7509V66.3408ZM61.7509 20.8551V20.0921H60.9879V20.8551H61.7509ZM74.2027 20.8551H74.9657V20.0921H74.2027V20.8551ZM74.2027 65.5778H61.7509V67.1038H74.2027V65.5778ZM62.5139 66.3408V20.8551H60.9879V66.3408H62.5139ZM61.7509 21.6181L74.2027 21.6181V20.0921H61.7509V21.6181ZM73.4397 20.8551V66.3408H74.9657V20.8551H73.4397ZM93.9293 53.303L93.2328 53.6146L93.2378 53.6258L93.2432 53.6368L93.9293 53.303ZM106.454 54.6215L107.205 54.4831L107.056 53.6765L106.262 53.8831L106.454 54.6215ZM108.359 64.9491L108.622 65.6654L109.226 65.4436L109.109 64.8108L108.359 64.9491ZM83.8946 61.2868L83.2622 61.7137L83.2684 61.7228L83.8946 61.2868ZM84.1144 26.2753L84.7433 26.7072L84.7457 26.7037L84.1144 26.2753ZM108.359 22.4665L109.11 22.5975L109.211 22.0207L108.68 21.7744L108.359 22.4665ZM106.381 33.8196L106.14 34.5435L106.981 34.8237L107.133 33.9506L106.381 33.8196ZM93.9293 34.7718L94.6258 35.0834L94.6287 35.0767L93.9293 34.7718ZM91.9211 44.0741C91.9211 48.3852 92.3323 51.6016 93.2328 53.6146L94.6258 52.9915C93.8661 51.2933 93.4471 48.3571 93.4471 44.0741H91.9211ZM93.2432 53.6368C93.7321 54.6418 94.392 55.4377 95.2402 55.9788C96.0897 56.5208 97.0797 56.7761 98.1776 56.7761V55.2502C97.3222 55.2502 96.6275 55.0538 96.0609 54.6924C95.493 54.3301 95.0054 53.771 94.6154 52.9693L93.2432 53.6368ZM98.1776 56.7761C100.23 56.7761 103.064 56.2923 106.647 55.3598L106.262 53.8831C102.715 54.8062 100.032 55.2502 98.1776 55.2502V56.7761ZM105.704 54.7598L107.608 65.0875L109.109 64.8108L107.205 54.4831L105.704 54.7598ZM108.096 64.2329C104.318 65.6197 100.525 66.3103 96.7126 66.3103V67.8362C100.713 67.8362 104.684 67.1107 108.622 65.6654L108.096 64.2329ZM96.7126 66.3103C91.0333 66.3103 87.0283 64.4527 84.5208 60.8509L83.2684 61.7228C86.1323 65.8362 90.6726 67.8362 96.7126 67.8362V66.3103ZM84.527 60.86C82.0134 57.1361 80.7023 51.5285 80.7023 43.9276H79.1764C79.1764 51.6594 80.5021 57.6246 83.2622 61.7137L84.527 60.86ZM80.7023 43.9276C80.7023 36.2854 82.084 30.5795 84.7433 26.7072L83.4854 25.8434C80.578 30.077 79.1764 36.1393 79.1764 43.9276H80.7023ZM84.7457 26.7037C87.3487 22.8677 91.6149 20.8856 97.7381 20.8856V19.3597C91.263 19.3597 86.4467 21.4794 83.483 25.8469L84.7457 26.7037ZM97.7381 20.8856C101.338 20.8856 104.769 21.6427 108.038 23.1587L108.68 21.7744C105.21 20.1652 101.56 19.3597 97.7381 19.3597V20.8856ZM107.607 22.3356L105.629 33.6887L107.133 33.9506L109.11 22.5975L107.607 22.3356ZM106.622 33.0958C102.824 31.8295 100.051 31.1523 98.3973 31.1523V32.6782C99.7706 32.6782 102.321 33.2705 106.14 34.5435L106.622 33.0958ZM98.3973 31.1523C97.209 31.1523 96.1494 31.4166 95.2579 31.9866C94.3646 32.5577 93.6946 33.4008 93.2299 34.467L94.6287 35.0767C94.9941 34.2384 95.4838 33.6533 96.0799 33.2722C96.6777 32.89 97.4371 32.6782 98.3973 32.6782V31.1523ZM93.2328 34.4603C92.332 36.4739 91.9211 39.7156 91.9211 44.0741H93.4471C93.4471 39.7407 93.8663 36.7809 94.6258 35.0834L93.2328 34.4603ZM136.057 66.3408V67.1038H136.768L136.818 66.3952L136.057 66.3408ZM111.447 66.3408H110.684V67.1038H111.447V66.3408ZM111.447 20.8551V20.0921H110.684V20.8551H111.447ZM136.79 20.8551L137.551 20.9049L137.604 20.0921H136.79V20.8551ZM136.057 32.0617V32.8247H136.772L136.818 32.1115L136.057 32.0617ZM123.972 32.0617V31.2988H123.209V32.0617H123.972ZM123.972 38.8736H123.209V39.6366H123.972V38.8736ZM134.446 38.8736H135.209V38.1106H134.446V38.8736ZM134.446 48.5421V49.305H135.209V48.5421H134.446ZM123.972 48.5421V47.7791H123.209V48.5421H123.972ZM123.972 56.0864H123.209V56.8494H123.972V56.0864ZM136.79 56.0864L137.551 56.1407L137.609 55.3234H136.79V56.0864ZM136.057 65.5778H111.447V67.1038H136.057V65.5778ZM112.209 66.3408V20.8551H110.684V66.3408H112.209ZM111.447 21.6181H136.79V20.0921H111.447V21.6181ZM136.028 20.8053L135.296 32.012L136.818 32.1115L137.551 20.9049L136.028 20.8053ZM136.057 31.2988H123.972V32.8247H136.057V31.2988ZM123.209 32.0617V38.8736H124.735V32.0617H123.209ZM123.972 39.6366L134.446 39.6366V38.1106L123.972 38.1106V39.6366ZM133.683 38.8736V48.5421H135.209V38.8736H133.683ZM134.446 47.7791L123.972 47.7791V49.305L134.446 49.305V47.7791ZM123.209 48.5421V56.0864H124.735V48.5421H123.209ZM123.972 56.8494L136.79 56.8494V55.3234L123.972 55.3234V56.8494ZM136.029 56.032L135.296 66.2864L136.818 66.3952L137.551 56.1407L136.029 56.032Z"
          fill="#1A1618"
          mask="url(#path-1-outside-1_1_9)"
        />
        <mask
          id="path-3-outside-2_1_9"
          maskUnits="userSpaceOnUse"
          x="2.31958"
          y="17.0519"
          width="138"
          height="49"
          fill="black"
        >
          <rect fill="white" x="2.31958" y="17.0519" width="138" height="49" />
          <path d="M3.49151 32.2631C3.49151 27.9172 4.76111 24.4258 7.3003 21.789C9.83949 19.1521 13.3065 17.8337 17.7012 17.8337C22.1448 17.8337 26.686 18.2732 31.3249 19.1521L29.86 30.8715C25.0258 29.7484 21.7053 29.1868 19.8986 29.1868C17.6036 29.1868 16.456 30.1146 16.456 31.9702C16.456 32.7026 16.9932 33.4107 18.0674 34.0943C19.1905 34.7779 20.5334 35.5104 22.096 36.2917C23.6585 37.0241 25.2211 37.9275 26.7837 39.0018C28.3463 40.0272 29.6647 41.5165 30.739 43.4698C31.8621 45.423 32.4236 47.6692 32.4236 50.2084C32.4236 54.8473 31.1785 58.4363 28.6881 60.9755C26.1977 63.5147 22.6575 64.7843 18.0674 64.7843C13.5262 64.7843 9.08262 64.0763 4.73669 62.6602L5.5424 51.7466C10.7673 53.2603 14.4051 54.0172 16.456 54.0172C18.5069 54.0172 19.5324 53.1138 19.5324 51.3071C19.5324 50.3793 18.9708 49.5248 17.8477 48.7435C16.7734 47.9622 15.455 47.1809 13.8924 46.3996C12.3298 45.6183 10.7429 44.7149 9.13145 43.6895C7.56887 42.6641 6.22603 41.1747 5.10292 39.2215C4.02865 37.2683 3.49151 34.9488 3.49151 32.2631ZM59.9463 64.0519H36.8006V18.5662H49.3257V53.8707H60.6788L59.9463 64.0519ZM76.5222 64.0519H64.0704V18.5662H76.5222V64.0519ZM95.0036 41.7851C95.0036 46.0822 95.4187 49.1585 96.2488 51.0141C97.1278 52.8208 98.5439 53.7242 100.497 53.7242C102.45 53.7242 105.209 53.2603 108.774 52.3325L110.678 62.6602C106.821 64.0763 102.939 64.7843 99.0322 64.7843C93.1725 64.7843 88.8998 62.8555 86.2141 58.9979C83.5773 55.0914 82.2589 49.305 82.2589 41.6386C82.2589 33.9234 83.6505 28.0393 86.4339 23.9864C89.2172 19.8846 93.7585 17.8337 100.058 17.8337C103.769 17.8337 107.309 18.615 110.678 20.1776L108.701 31.5307C104.892 30.2611 102.231 29.6263 100.717 29.6263C98.5683 29.6263 97.0789 30.5785 96.2488 32.4829C95.4187 34.3384 95.0036 37.4392 95.0036 41.7851ZM138.377 64.0519H113.766V18.5662H139.109L138.377 29.7728H126.291V36.5847L136.765 36.5847V46.2531L126.291 46.2531V53.7974L139.109 53.7974L138.377 64.0519Z" />
        </mask>
        <path
          d="M3.49151 32.2631C3.49151 27.9172 4.76111 24.4258 7.3003 21.789C9.83949 19.1521 13.3065 17.8337 17.7012 17.8337C22.1448 17.8337 26.686 18.2732 31.3249 19.1521L29.86 30.8715C25.0258 29.7484 21.7053 29.1868 19.8986 29.1868C17.6036 29.1868 16.456 30.1146 16.456 31.9702C16.456 32.7026 16.9932 33.4107 18.0674 34.0943C19.1905 34.7779 20.5334 35.5104 22.096 36.2917C23.6585 37.0241 25.2211 37.9275 26.7837 39.0018C28.3463 40.0272 29.6647 41.5165 30.739 43.4698C31.8621 45.423 32.4236 47.6692 32.4236 50.2084C32.4236 54.8473 31.1785 58.4363 28.6881 60.9755C26.1977 63.5147 22.6575 64.7843 18.0674 64.7843C13.5262 64.7843 9.08262 64.0763 4.73669 62.6602L5.5424 51.7466C10.7673 53.2603 14.4051 54.0172 16.456 54.0172C18.5069 54.0172 19.5324 53.1138 19.5324 51.3071C19.5324 50.3793 18.9708 49.5248 17.8477 48.7435C16.7734 47.9622 15.455 47.1809 13.8924 46.3996C12.3298 45.6183 10.7429 44.7149 9.13145 43.6895C7.56887 42.6641 6.22603 41.1747 5.10292 39.2215C4.02865 37.2683 3.49151 34.9488 3.49151 32.2631ZM59.9463 64.0519H36.8006V18.5662H49.3257V53.8707H60.6788L59.9463 64.0519ZM76.5222 64.0519H64.0704V18.5662H76.5222V64.0519ZM95.0036 41.7851C95.0036 46.0822 95.4187 49.1585 96.2488 51.0141C97.1278 52.8208 98.5439 53.7242 100.497 53.7242C102.45 53.7242 105.209 53.2603 108.774 52.3325L110.678 62.6602C106.821 64.0763 102.939 64.7843 99.0322 64.7843C93.1725 64.7843 88.8998 62.8555 86.2141 58.9979C83.5773 55.0914 82.2589 49.305 82.2589 41.6386C82.2589 33.9234 83.6505 28.0393 86.4339 23.9864C89.2172 19.8846 93.7585 17.8337 100.058 17.8337C103.769 17.8337 107.309 18.615 110.678 20.1776L108.701 31.5307C104.892 30.2611 102.231 29.6263 100.717 29.6263C98.5683 29.6263 97.0789 30.5785 96.2488 32.4829C95.4187 34.3384 95.0036 37.4392 95.0036 41.7851ZM138.377 64.0519H113.766V18.5662H139.109L138.377 29.7728H126.291V36.5847L136.765 36.5847V46.2531L126.291 46.2531V53.7974L139.109 53.7974L138.377 64.0519Z"
          fill="#ED203D"
        />
        <path
          d="M7.3003 21.789L7.84989 22.3182L7.3003 21.789ZM31.3249 19.1521L32.082 19.2468L32.1709 18.5359L31.467 18.4025L31.3249 19.1521ZM29.86 30.8715L29.6874 31.6147L30.5121 31.8063L30.6171 30.9661L29.86 30.8715ZM18.0674 34.0943L17.6578 34.738L17.6642 34.7421L17.6707 34.746L18.0674 34.0943ZM22.096 36.2917L21.7547 36.9741L21.7634 36.9784L21.7721 36.9825L22.096 36.2917ZM26.7837 39.0018L26.3515 39.6305L26.3582 39.6351L26.3651 39.6397L26.7837 39.0018ZM30.739 43.4698L30.0704 43.8375L30.0739 43.8438L30.0775 43.8501L30.739 43.4698ZM28.6881 60.9755L28.1434 60.4413L28.6881 60.9755ZM4.73669 62.6602L3.97579 62.604L3.93176 63.2004L4.50031 63.3856L4.73669 62.6602ZM5.5424 51.7465L5.75472 51.0137L4.85078 50.7518L4.78149 51.6904L5.5424 51.7465ZM17.8477 48.7435L17.3989 49.3605L17.4054 49.3652L17.412 49.3698L17.8477 48.7435ZM13.8924 46.3996L14.2336 45.7172L13.8924 46.3996ZM9.13145 43.6895L8.71279 44.3275L8.72182 44.3332L9.13145 43.6895ZM5.10292 39.2215L4.43439 39.5892L4.43788 39.5955L4.44149 39.6018L5.10292 39.2215ZM4.25449 32.2631C4.25449 28.0752 5.47272 24.7868 7.84989 22.3182L6.75071 21.2598C4.0495 24.0649 2.72854 27.7593 2.72854 32.2631H4.25449ZM7.84989 22.3182C10.2169 19.8602 13.469 18.5967 17.7012 18.5967V17.0707C13.1439 17.0707 9.46207 18.4441 6.75071 21.2598L7.84989 22.3182ZM17.7012 18.5967C22.0943 18.5967 26.5879 19.0311 31.1829 19.9018L31.467 18.4025C26.7842 17.5152 22.1953 17.0707 17.7012 17.0707V18.5967ZM30.5679 19.0575L29.1029 30.7768L30.6171 30.9661L32.082 19.2468L30.5679 19.0575ZM30.0327 30.1283C25.2075 29.0073 21.8054 28.4238 19.8986 28.4238V29.9498C21.6053 29.9498 24.8441 30.4895 29.6874 31.6147L30.0327 30.1283ZM19.8986 28.4238C18.6681 28.4238 17.6038 28.6693 16.837 29.2893C16.0391 29.9344 15.6931 30.8768 15.6931 31.9702H17.219C17.219 31.208 17.4467 30.7587 17.7964 30.476C18.177 30.1682 18.834 29.9498 19.8986 29.9498V28.4238ZM15.6931 31.9702C15.6931 33.1106 16.5261 34.0178 17.6578 34.738L18.4771 33.4506C17.4603 32.8036 17.219 32.2946 17.219 31.9702H15.6931ZM17.6707 34.746C18.8166 35.4435 20.179 36.1862 21.7547 36.9741L22.4372 35.6092C20.8878 34.8346 19.5644 34.1123 18.4641 33.4426L17.6707 34.746ZM21.7721 36.9825C23.2934 37.6956 24.8199 38.5776 26.3515 39.6305L27.2159 38.373C25.6223 37.2774 24.0236 36.3526 22.4198 35.6008L21.7721 36.9825ZM26.3651 39.6397C27.8053 40.5848 29.0447 41.9724 30.0704 43.8375L31.4075 43.1021C30.2847 41.0607 28.8873 39.4697 27.2023 38.3639L26.3651 39.6397ZM30.0775 43.8501C31.126 45.6735 31.6607 47.7854 31.6607 50.2084H33.1866C33.1866 47.553 32.5982 45.1725 31.4004 43.0894L30.0775 43.8501ZM31.6607 50.2084C31.6607 54.7106 30.4551 58.0842 28.1434 60.4413L29.2328 61.5098C31.9018 58.7885 33.1866 54.984 33.1866 50.2084H31.6607ZM28.1434 60.4413C25.835 62.7949 22.515 64.0213 18.0674 64.0213V65.5473C22.8 65.5473 26.5605 64.2345 29.2328 61.5098L28.1434 60.4413ZM18.0674 64.0213C13.607 64.0213 9.24317 63.3261 4.97307 61.9347L4.50031 63.3856C8.92206 64.8264 13.4454 65.5473 18.0674 65.5473V64.0213ZM5.4976 62.7164L6.30331 51.8027L4.78149 51.6904L3.97579 62.604L5.4976 62.7164ZM5.33008 52.4794C10.5464 53.9907 14.2823 54.7801 16.456 54.7801V53.2542C14.528 53.2542 10.9881 52.5299 5.75472 51.0137L5.33008 52.4794ZM16.456 54.7801C17.577 54.7801 18.5602 54.5354 19.2676 53.9122C19.9935 53.2727 20.2953 52.3549 20.2953 51.3071H18.7694C18.7694 52.066 18.5585 52.5032 18.2589 52.7671C17.9409 53.0473 17.386 53.2542 16.456 53.2542V54.7801ZM20.2953 51.3071C20.2953 50.026 19.5086 48.9694 18.2834 48.1171L17.412 49.3698C18.433 50.0801 18.7694 50.7326 18.7694 51.3071H20.2953ZM18.2965 48.1264C17.1795 47.3141 15.8228 46.5118 14.2336 45.7172L13.5512 47.082C15.0872 47.85 16.3673 48.6103 17.3989 49.3605L18.2965 48.1264ZM14.2336 45.7172C12.6966 44.9486 11.1324 44.0585 9.54107 43.0458L8.72182 44.3332C10.3533 45.3714 11.9631 46.288 13.5512 47.082L14.2336 45.7172ZM9.55006 43.0516C8.10601 42.104 6.83995 40.7118 5.76435 38.8412L4.44149 39.6018C5.6121 41.6377 7.03172 43.2242 8.71283 44.3274L9.55006 43.0516ZM5.77146 38.8538C4.77065 37.0342 4.25449 34.8465 4.25449 32.2631H2.72854C2.72854 35.0512 3.28665 37.5024 4.43439 39.5892L5.77146 38.8538ZM59.9463 64.0519V64.8148H60.6564L60.7074 64.1066L59.9463 64.0519ZM36.8006 64.0519H36.0377V64.8148H36.8006V64.0519ZM36.8006 18.5662V17.8032H36.0377V18.5662H36.8006ZM49.3257 18.5662H50.0887V17.8032H49.3257V18.5662ZM49.3257 53.8707H48.5627V54.6337H49.3257V53.8707ZM60.6788 53.8707L61.4398 53.9254L61.4986 53.1077H60.6788V53.8707ZM59.9463 63.2889H36.8006V64.8148H59.9463V63.2889ZM37.5636 64.0519V18.5662H36.0377V64.0519H37.5636ZM36.8006 19.3291H49.3257V17.8032H36.8006V19.3291ZM48.5627 18.5662V53.8707H50.0887V18.5662H48.5627ZM49.3257 54.6337H60.6788V53.1077H49.3257V54.6337ZM59.9178 53.8159L59.1853 63.9971L60.7074 64.1066L61.4398 53.9254L59.9178 53.8159ZM76.5222 64.0519V64.8148H77.2852V64.0519H76.5222ZM64.0704 64.0519H63.3074V64.8148H64.0704V64.0519ZM64.0704 18.5662V17.8032H63.3074V18.5662H64.0704ZM76.5222 18.5662H77.2852V17.8032H76.5222V18.5662ZM76.5222 63.2889H64.0704V64.8148H76.5222V63.2889ZM64.8334 64.0519V18.5662H63.3074V64.0519H64.8334ZM64.0704 19.3291L76.5222 19.3291V17.8032H64.0704V19.3291ZM75.7592 18.5662V64.0519H77.2852V18.5662H75.7592ZM96.2488 51.0141L95.5524 51.3257L95.5574 51.3369L95.5627 51.3479L96.2488 51.0141ZM108.774 52.3325L109.524 52.1942L109.375 51.3875L108.582 51.5941L108.774 52.3325ZM110.678 62.6602L110.941 63.3764L111.545 63.1547L111.429 62.5218L110.678 62.6602ZM86.2141 58.9979L85.5817 59.4248L85.588 59.4338L86.2141 58.9979ZM86.4339 23.9864L87.0628 24.4183L87.0652 24.4148L86.4339 23.9864ZM110.678 20.1776L111.43 20.3085L111.53 19.7317L110.999 19.4854L110.678 20.1776ZM108.701 31.5307L108.459 32.2545L109.3 32.5348L109.452 31.6616L108.701 31.5307ZM96.2488 32.4829L96.9453 32.7945L96.9482 32.7878L96.2488 32.4829ZM94.2407 41.7851C94.2407 46.0962 94.6518 49.3127 95.5524 51.3257L96.9453 50.7025C96.1856 49.0044 95.7666 46.0682 95.7666 41.7851H94.2407ZM95.5627 51.3479C96.0516 52.3528 96.7115 53.1488 97.5598 53.6899C98.4093 54.2318 99.3992 54.4872 100.497 54.4872V52.9612C99.6417 52.9612 98.947 52.7649 98.3804 52.4034C97.8126 52.0412 97.325 51.4821 96.9349 50.6803L95.5627 51.3479ZM100.497 54.4872C102.549 54.4872 105.384 54.0033 108.966 53.0709L108.582 51.5941C105.035 52.5173 102.351 52.9612 100.497 52.9612V54.4872ZM108.024 52.4709L109.928 62.7985L111.429 62.5218L109.524 52.1942L108.024 52.4709ZM110.415 61.9439C106.638 63.3307 102.844 64.0213 99.0322 64.0213V65.5473C103.033 65.5473 107.004 64.8218 110.941 63.3764L110.415 61.9439ZM99.0322 64.0213C93.3529 64.0213 89.3479 62.1637 86.8403 58.5619L85.588 59.4338C88.4518 63.5473 92.9921 65.5473 99.0322 65.5473V64.0213ZM86.8465 58.571C84.3329 54.8472 83.0218 49.2396 83.0218 41.6386H81.4959C81.4959 49.3705 82.8216 55.3357 85.5817 59.4248L86.8465 58.571ZM83.0218 41.6386C83.0218 33.9965 84.4036 28.2905 87.0628 24.4183L85.8049 23.5544C82.8975 27.7881 81.4959 33.8503 81.4959 41.6386H83.0218ZM87.0652 24.4148C89.6682 20.5788 93.9344 18.5967 100.058 18.5967V17.0707C93.5825 17.0707 88.7662 19.1904 85.8025 23.558L87.0652 24.4148ZM100.058 18.5967C103.658 18.5967 107.088 19.3538 110.357 20.8697L110.999 19.4854C107.529 17.8762 103.88 17.0707 100.058 17.0707V18.5967ZM109.927 20.0466L107.949 31.3998L109.452 31.6616L111.43 20.3085L109.927 20.0466ZM108.942 30.8069C105.143 29.5406 102.371 28.8633 100.717 28.8633V30.3893C102.09 30.3893 104.641 30.9816 108.459 32.2545L108.942 30.8069ZM100.717 28.8633C99.5285 28.8633 98.4689 29.1276 97.5774 29.6976C96.6841 30.2687 96.0141 31.1119 95.5494 32.178L96.9482 32.7878C97.3136 31.9495 97.8033 31.3644 98.3994 30.9833C98.9972 30.6011 99.7566 30.3893 100.717 30.3893V28.8633ZM95.5524 32.1713C94.6515 34.1849 94.2407 37.4266 94.2407 41.7851H95.7666C95.7666 37.4517 96.1859 34.492 96.9453 32.7945L95.5524 32.1713ZM138.377 64.0519V64.8148H139.087L139.138 64.1062L138.377 64.0519ZM113.766 64.0519H113.003V64.8148H113.766V64.0519ZM113.766 18.5662V17.8032H113.003V18.5662H113.766ZM139.109 18.5662L139.87 18.6159L139.924 17.8032H139.109V18.5662ZM138.377 29.7728V30.5358H139.091L139.138 29.8226L138.377 29.7728ZM126.291 29.7728V29.0098H125.528V29.7728H126.291ZM126.291 36.5847H125.528V37.3476H126.291V36.5847ZM136.765 36.5847H137.528V35.8217H136.765V36.5847ZM136.765 46.2531V47.0161H137.528V46.2531H136.765ZM126.291 46.2531V45.4901H125.528V46.2531H126.291ZM126.291 53.7974H125.528V54.5604H126.291V53.7974ZM139.109 53.7974L139.87 53.8518L139.929 53.0345H139.109V53.7974ZM138.377 63.2889L113.766 63.2889V64.8148H138.377V63.2889ZM114.529 64.0519V18.5662H113.003V64.0519H114.529ZM113.766 19.3291H139.109V17.8032H113.766V19.3291ZM138.348 18.5164L137.615 29.723L139.138 29.8226L139.87 18.6159L138.348 18.5164ZM138.377 29.0098H126.291V30.5358H138.377V29.0098ZM125.528 29.7728V36.5847H127.054V29.7728H125.528ZM126.291 37.3476L136.765 37.3476V35.8217L126.291 35.8217V37.3476ZM136.002 36.5847V46.2531H137.528V36.5847H136.002ZM136.765 45.4901L126.291 45.4901V47.0161L136.765 47.0161V45.4901ZM125.528 46.2531V53.7974H127.054V46.2531H125.528ZM126.291 54.5604L139.109 54.5604V53.0345L126.291 53.0345V54.5604ZM138.348 53.7431L137.616 63.9975L139.138 64.1062L139.87 53.8518L138.348 53.7431Z"
          fill="#1A1618"
          mask="url(#path-3-outside-2_1_9)"
        />
        <mask
          id="path-5-outside-3_1_9"
          maskUnits="userSpaceOnUse"
          x="5.40649"
          y="13.9999"
          width="138"
          height="49"
          fill="black"
        >
          <rect fill="white" x="5.40649" y="13.9999" width="138" height="49" />
          <path d="M6.57843 29.2112C6.57843 24.8653 7.84802 21.3739 10.3872 18.7371C12.9264 16.1002 16.3934 14.7818 20.7881 14.7818C25.2317 14.7818 29.773 15.2213 34.4119 16.1002L32.9469 27.8196C28.1127 26.6965 24.7922 26.1349 22.9855 26.1349C20.6905 26.1349 19.5429 27.0627 19.5429 28.9183C19.5429 29.6507 20.0801 30.3588 21.1544 31.0424C22.2775 31.726 23.6203 32.4585 25.1829 33.2398C26.7455 33.9722 28.308 34.8756 29.8706 35.9499C31.4332 36.9753 32.7516 38.4646 33.8259 40.4179C34.949 42.3711 35.5105 44.6173 35.5105 47.1565C35.5105 51.7954 34.2654 55.3844 31.775 57.9236C29.2846 60.4628 25.7444 61.7324 21.1544 61.7324C16.6131 61.7324 12.1695 61.0244 7.82361 59.6083L8.62931 48.6946C13.8542 50.2084 17.4921 50.9653 19.5429 50.9653C21.5938 50.9653 22.6193 50.0619 22.6193 48.2552C22.6193 47.3274 22.0577 46.4728 20.9346 45.6916C19.8603 44.9103 18.5419 44.129 16.9793 43.3477C15.4168 42.5664 13.8298 41.663 12.2184 40.6376C10.6558 39.6122 9.31294 38.1228 8.18984 36.1696C7.11556 34.2164 6.57843 31.8969 6.57843 29.2112ZM63.0333 60.9999H39.8876V15.5143H52.4126V50.8188H63.7657L63.0333 60.9999ZM79.6091 60.9999H67.1573V15.5143H79.6091V60.9999ZM98.0906 38.7332C98.0906 43.0303 98.5056 46.1066 99.3357 47.9622C100.215 49.7689 101.631 50.6723 103.584 50.6723C105.537 50.6723 108.296 50.2084 111.861 49.2806L113.765 59.6083C109.908 61.0244 106.026 61.7324 102.119 61.7324C96.2594 61.7324 91.9867 59.8036 89.301 55.946C86.6642 52.0395 85.3458 46.2531 85.3458 38.5867C85.3458 30.8715 86.7374 24.9874 89.5208 20.9345C92.3041 16.8327 96.8454 14.7818 103.145 14.7818C106.856 14.7818 110.396 15.5631 113.765 17.1257L111.788 28.4788C107.979 27.2092 105.317 26.5744 103.804 26.5744C101.655 26.5744 100.166 27.5266 99.3357 29.431C98.5056 31.2865 98.0906 34.3873 98.0906 38.7332ZM141.464 60.9999L116.853 60.9999V15.5143H142.196L141.464 26.7209H129.378V33.5327L139.852 33.5327V43.2012L129.378 43.2012V50.7455L142.196 50.7455L141.464 60.9999Z" />
        </mask>
        <path
          d="M6.57843 29.2112C6.57843 24.8653 7.84802 21.3739 10.3872 18.7371C12.9264 16.1002 16.3934 14.7818 20.7881 14.7818C25.2317 14.7818 29.773 15.2213 34.4119 16.1002L32.9469 27.8196C28.1127 26.6965 24.7922 26.1349 22.9855 26.1349C20.6905 26.1349 19.5429 27.0627 19.5429 28.9183C19.5429 29.6507 20.0801 30.3588 21.1544 31.0424C22.2775 31.726 23.6203 32.4585 25.1829 33.2398C26.7455 33.9722 28.308 34.8756 29.8706 35.9499C31.4332 36.9753 32.7516 38.4646 33.8259 40.4179C34.949 42.3711 35.5105 44.6173 35.5105 47.1565C35.5105 51.7954 34.2654 55.3844 31.775 57.9236C29.2846 60.4628 25.7444 61.7324 21.1544 61.7324C16.6131 61.7324 12.1695 61.0244 7.82361 59.6083L8.62931 48.6946C13.8542 50.2084 17.4921 50.9653 19.5429 50.9653C21.5938 50.9653 22.6193 50.0619 22.6193 48.2552C22.6193 47.3274 22.0577 46.4728 20.9346 45.6916C19.8603 44.9103 18.5419 44.129 16.9793 43.3477C15.4168 42.5664 13.8298 41.663 12.2184 40.6376C10.6558 39.6122 9.31294 38.1228 8.18984 36.1696C7.11556 34.2164 6.57843 31.8969 6.57843 29.2112ZM63.0333 60.9999H39.8876V15.5143H52.4126V50.8188H63.7657L63.0333 60.9999ZM79.6091 60.9999H67.1573V15.5143H79.6091V60.9999ZM98.0906 38.7332C98.0906 43.0303 98.5056 46.1066 99.3357 47.9622C100.215 49.7689 101.631 50.6723 103.584 50.6723C105.537 50.6723 108.296 50.2084 111.861 49.2806L113.765 59.6083C109.908 61.0244 106.026 61.7324 102.119 61.7324C96.2594 61.7324 91.9867 59.8036 89.301 55.946C86.6642 52.0395 85.3458 46.2531 85.3458 38.5867C85.3458 30.8715 86.7374 24.9874 89.5208 20.9345C92.3041 16.8327 96.8454 14.7818 103.145 14.7818C106.856 14.7818 110.396 15.5631 113.765 17.1257L111.788 28.4788C107.979 27.2092 105.317 26.5744 103.804 26.5744C101.655 26.5744 100.166 27.5266 99.3357 29.431C98.5056 31.2865 98.0906 34.3873 98.0906 38.7332ZM141.464 60.9999L116.853 60.9999V15.5143H142.196L141.464 26.7209H129.378V33.5327L139.852 33.5327V43.2012L129.378 43.2012V50.7455L142.196 50.7455L141.464 60.9999Z"
          fill="#FCBA28"
        />
        <path
          d="M10.3872 18.7371L10.9368 19.2663L10.3872 18.7371ZM34.4119 16.1002L35.1689 16.1949L35.2578 15.484L34.5539 15.3506L34.4119 16.1002ZM32.9469 27.8196L32.7743 28.5628L33.599 28.7544L33.704 27.9142L32.9469 27.8196ZM21.1544 31.0424L20.7447 31.6861L20.7511 31.6902L20.7576 31.6941L21.1544 31.0424ZM25.1829 33.2398L24.8417 33.9222L24.8503 33.9265L24.859 33.9306L25.1829 33.2398ZM29.8706 35.9499L29.4384 36.5786L29.4451 36.5832L29.452 36.5877L29.8706 35.9499ZM33.8259 40.4179L33.1574 40.7856L33.1609 40.7919L33.1645 40.7982L33.8259 40.4179ZM31.775 57.9236L31.2303 57.3894L31.775 57.9236ZM7.82361 59.6083L7.0627 59.5521L7.01867 60.1485L7.58723 60.3337L7.82361 59.6083ZM8.62931 48.6946L8.84163 47.9618L7.93769 47.6999L7.86841 48.6385L8.62931 48.6946ZM20.9346 45.6916L20.4859 46.3086L20.4923 46.3133L20.4989 46.3179L20.9346 45.6916ZM16.9793 43.3477L17.3206 42.6653L16.9793 43.3477ZM12.2184 40.6376L11.7997 41.2755L11.8087 41.2813L12.2184 40.6376ZM8.18984 36.1696L7.5213 36.5373L7.5248 36.5436L7.52841 36.5499L8.18984 36.1696ZM7.34141 29.2112C7.34141 25.0232 8.55963 21.7349 10.9368 19.2663L9.83763 18.2078C7.13641 21.013 5.81545 24.7074 5.81545 29.2112H7.34141ZM10.9368 19.2663C13.3038 16.8083 16.556 15.5448 20.7881 15.5448V14.0188C16.2308 14.0188 12.549 15.3922 9.83763 18.2078L10.9368 19.2663ZM20.7881 15.5448C25.1812 15.5448 29.6748 15.9792 34.2698 16.8499L34.5539 15.3506C29.8711 14.4633 25.2822 14.0188 20.7881 14.0188V15.5448ZM33.6548 16.0056L32.1899 27.7249L33.704 27.9142L35.1689 16.1949L33.6548 16.0056ZM33.1196 27.0764C28.2944 25.9554 24.8923 25.3719 22.9855 25.3719V26.8979C24.6922 26.8979 27.931 27.4376 32.7743 28.5628L33.1196 27.0764ZM22.9855 25.3719C21.755 25.3719 20.6907 25.6174 19.9239 26.2374C19.126 26.8825 18.78 27.8249 18.78 28.9183H20.3059C20.3059 28.1561 20.5336 27.7068 20.8833 27.4241C21.2639 27.1163 21.9209 26.8979 22.9855 26.8979V25.3719ZM18.78 28.9183C18.78 30.0587 19.613 30.9659 20.7447 31.6861L21.564 30.3987C20.5472 29.7516 20.3059 29.2427 20.3059 28.9183H18.78ZM20.7576 31.6941C21.9036 32.3916 23.2659 33.1343 24.8417 33.9222L25.5241 32.5573C23.9747 31.7826 22.6514 31.0604 21.5511 30.3907L20.7576 31.6941ZM24.859 33.9306C26.3804 34.6437 27.9068 35.5257 29.4384 36.5786L30.3029 35.3211C28.7092 34.2255 27.1106 33.3007 25.5067 32.5489L24.859 33.9306ZM29.452 36.5877C30.8922 37.5329 32.1316 38.9205 33.1574 40.7856L34.4944 40.0502C33.3717 38.0088 31.9742 36.4177 30.2892 35.312L29.452 36.5877ZM33.1645 40.7982C34.2129 42.6216 34.7476 44.7335 34.7476 47.1565H36.2735C36.2735 44.5011 35.6851 42.1206 34.4873 40.0375L33.1645 40.7982ZM34.7476 47.1565C34.7476 51.6587 33.542 55.0323 31.2303 57.3894L32.3197 58.4579C34.9887 55.7366 36.2735 51.9321 36.2735 47.1565H34.7476ZM31.2303 57.3894C28.9219 59.743 25.6019 60.9694 21.1544 60.9694V62.4954C25.8869 62.4954 29.6474 61.1826 32.3197 58.4579L31.2303 57.3894ZM21.1544 60.9694C16.6939 60.9694 12.3301 60.2742 8.05999 58.8828L7.58723 60.3337C12.009 61.7745 16.5323 62.4954 21.1544 62.4954V60.9694ZM8.58451 59.6644L9.39022 48.7508L7.86841 48.6385L7.0627 59.5521L8.58451 59.6644ZM8.41699 49.4275C13.6333 50.9388 17.3693 51.7282 19.5429 51.7282V50.2023C17.6149 50.2023 14.075 49.478 8.84163 47.9618L8.41699 49.4275ZM19.5429 51.7282C20.6639 51.7282 21.6471 51.4835 22.3545 50.8602C23.0804 50.2208 23.3823 49.303 23.3823 48.2552H21.8563C21.8563 49.0141 21.6454 49.4513 21.3458 49.7152C21.0278 49.9954 20.4729 50.2023 19.5429 50.2023V51.7282ZM23.3823 48.2552C23.3823 46.9741 22.5955 45.9175 21.3703 45.0652L20.4989 46.3179C21.5199 47.0282 21.8563 47.6807 21.8563 48.2552H23.3823ZM21.3834 45.0745C20.2665 44.2622 18.9097 43.4599 17.3206 42.6653L16.6381 44.0301C18.1741 44.7981 19.4542 45.5583 20.4859 46.3086L21.3834 45.0745ZM17.3206 42.6653C15.7835 41.8967 14.2193 41.0066 12.628 39.9939L11.8087 41.2813C13.4402 42.3195 15.05 43.2361 16.6381 44.0301L17.3206 42.6653ZM12.637 39.9997C11.1929 39.0521 9.92686 37.6599 8.85127 35.7893L7.52841 36.5499C8.69902 38.5858 10.1186 40.1723 11.7997 41.2755L12.637 39.9997ZM8.85837 35.8019C7.85757 33.9823 7.34141 31.7946 7.34141 29.2112H5.81545C5.81545 31.9993 6.37356 34.4505 7.5213 36.5373L8.85837 35.8019ZM63.0333 60.9999V61.7629H63.7433L63.7943 61.0547L63.0333 60.9999ZM39.8876 60.9999H39.1246V61.7629H39.8876V60.9999ZM39.8876 15.5143V14.7513H39.1246V15.5143H39.8876ZM52.4126 15.5143H53.1756V14.7513H52.4126V15.5143ZM52.4126 50.8188H51.6496V51.5817H52.4126V50.8188ZM63.7657 50.8188L64.5267 50.8735L64.5856 50.0558H63.7657V50.8188ZM63.0333 60.237H39.8876V61.7629H63.0333V60.237ZM40.6505 60.9999V15.5143H39.1246V60.9999H40.6505ZM39.8876 16.2772H52.4126V14.7513H39.8876V16.2772ZM51.6496 15.5143V50.8188H53.1756V15.5143H51.6496ZM52.4126 51.5817H63.7657V50.0558H52.4126V51.5817ZM63.0047 50.764L62.2722 60.9452L63.7943 61.0547L64.5267 50.8735L63.0047 50.764ZM79.6091 60.9999V61.7629H80.3721V60.9999H79.6091ZM67.1573 60.9999H66.3944V61.7629H67.1573V60.9999ZM67.1573 15.5143V14.7513H66.3944V15.5143H67.1573ZM79.6091 15.5143H80.3721V14.7513H79.6091V15.5143ZM79.6091 60.237H67.1573V61.7629H79.6091V60.237ZM67.9203 60.9999V15.5143H66.3944V60.9999H67.9203ZM67.1573 16.2772L79.6091 16.2772V14.7513H67.1573V16.2772ZM78.8462 15.5143V60.9999H80.3721V15.5143H78.8462ZM99.3357 47.9622L98.6393 48.2738L98.6443 48.2849L98.6496 48.296L99.3357 47.9622ZM111.861 49.2806L112.611 49.1422L112.462 48.3356L111.669 48.5422L111.861 49.2806ZM113.765 59.6083L114.028 60.3245L114.632 60.1028L114.515 59.4699L113.765 59.6083ZM89.3011 55.946L88.6686 56.3729L88.6749 56.3819L89.3011 55.946ZM89.5208 20.9345L90.1497 21.3664L90.1521 21.3629L89.5208 20.9345ZM113.765 17.1257L114.517 17.2566L114.617 16.6798L114.086 16.4335L113.765 17.1257ZM111.788 28.4788L111.546 29.2026L112.387 29.4829L112.539 28.6097L111.788 28.4788ZM99.3357 29.431L100.032 29.7426L100.035 29.7359L99.3357 29.431ZM97.3276 38.7332C97.3276 43.0443 97.7387 46.2608 98.6393 48.2738L100.032 47.6506C99.2725 45.9525 98.8535 43.0163 98.8535 38.7332H97.3276ZM98.6496 48.296C99.1385 49.3009 99.7985 50.0969 100.647 50.638C101.496 51.1799 102.486 51.4353 103.584 51.4353V49.9093C102.729 49.9093 102.034 49.713 101.467 49.3515C100.899 48.9893 100.412 48.4302 100.022 47.6284L98.6496 48.296ZM103.584 51.4353C105.636 51.4353 108.471 50.9514 112.053 50.019L111.669 48.5422C108.122 49.4654 105.438 49.9093 103.584 49.9093V51.4353ZM111.11 49.419L113.015 59.7466L114.515 59.4699L112.611 49.1422L111.11 49.419ZM113.502 58.892C109.724 60.2788 105.931 60.9694 102.119 60.9694V62.4954C106.12 62.4954 110.091 61.7699 114.028 60.3245L113.502 58.892ZM102.119 60.9694C96.4398 60.9694 92.4348 59.1118 89.9272 55.51L88.6749 56.3819C91.5387 60.4954 96.079 62.4954 102.119 62.4954V60.9694ZM89.9334 55.5191C87.4199 51.7953 86.1088 46.1876 86.1088 38.5867H84.5828C84.5828 46.3186 85.9085 52.2838 88.6687 56.3728L89.9334 55.5191ZM86.1088 38.5867C86.1088 30.9446 87.4905 25.2386 90.1497 21.3664L88.8918 20.5025C85.9844 24.7361 84.5828 30.7984 84.5828 38.5867H86.1088ZM90.1521 21.3629C92.7551 17.5269 97.0213 15.5448 103.145 15.5448V14.0188C96.6694 14.0188 91.8531 16.1385 88.8894 20.506L90.1521 21.3629ZM103.145 15.5448C106.745 15.5448 110.175 16.3019 113.444 17.8178L114.086 16.4335C110.616 14.8243 106.967 14.0188 103.145 14.0188V15.5448ZM113.014 16.9947L111.036 28.3478L112.539 28.6097L114.517 17.2566L113.014 16.9947ZM112.029 27.755C108.23 26.4887 105.458 25.8114 103.804 25.8114V27.3374C105.177 27.3374 107.728 27.9297 111.546 29.2026L112.029 27.755ZM103.804 25.8114C102.615 25.8114 101.556 26.0757 100.664 26.6457C99.7711 27.2168 99.101 28.06 98.6363 29.1261L100.035 29.7359C100.401 28.8976 100.89 28.3124 101.486 27.9314C102.084 27.5492 102.844 27.3374 103.804 27.3374V25.8114ZM98.6393 29.1194C97.7384 31.133 97.3276 34.3747 97.3276 38.7332H98.8535C98.8535 34.3998 99.2728 31.4401 100.032 29.7425L98.6393 29.1194ZM141.464 60.9999V61.7629H142.174L142.225 61.0543L141.464 60.9999ZM116.853 60.9999H116.09V61.7629H116.853V60.9999ZM116.853 15.5143V14.7513H116.09V15.5143H116.853ZM142.196 15.5143L142.957 15.564L143.01 14.7513H142.196V15.5143ZM141.464 26.7209V27.4839H142.178L142.225 26.7706L141.464 26.7209ZM129.378 26.7209V25.9579H128.615V26.7209H129.378ZM129.378 33.5327H128.615V34.2957H129.378V33.5327ZM139.852 33.5327H140.615V32.7698H139.852V33.5327ZM139.852 43.2012V43.9642H140.615V43.2012H139.852ZM129.378 43.2012V42.4382H128.615V43.2012H129.378ZM129.378 50.7455H128.615V51.5085H129.378V50.7455ZM142.196 50.7455L142.957 50.7999L143.015 49.9825H142.196V50.7455ZM141.464 60.237L116.853 60.237V61.7629L141.464 61.7629V60.237ZM117.616 60.9999V15.5143H116.09V60.9999H117.616ZM116.853 16.2772H142.196V14.7513H116.853V16.2772ZM141.435 15.4645L140.702 26.6711L142.225 26.7706L142.957 15.564L141.435 15.4645ZM141.464 25.9579H129.378V27.4839H141.464V25.9579ZM128.615 26.7209V33.5327H130.141V26.7209H128.615ZM129.378 34.2957L139.852 34.2957V32.7698L129.378 32.7698V34.2957ZM139.089 33.5327V43.2012H140.615V33.5327H139.089ZM139.852 42.4382L129.378 42.4382V43.9642L139.852 43.9642V42.4382ZM128.615 43.2012V50.7455H130.141V43.2012H128.615ZM129.378 51.5085L142.196 51.5085V49.9825L129.378 49.9825V51.5085ZM141.435 50.6912L140.703 60.9456L142.225 61.0543L142.957 50.7999L141.435 50.6912Z"
          fill="#1A1618"
          fillOpacity="0.65"
          mask="url(#path-5-outside-3_1_9)"
        />
      </svg>
